# File created by Blade
# Date/Time:  Wed Jan 21 17:10:49 2015
#---------------------------------------------------------
:version 1.10
:name HOM
:units
  mass 1.0
  length 1.000000
  angle deg
:documentation
     Acclaim Skeleton File
:root
   axis xyz
   order TX TY TZ RX RY RZ
   position 0.000000 0.000000 0.000000
   orientation 0 0 0
:bonedata
   begin
      id 1
      name Spine_dum
      direction 0.000000 1.000000 0.000000
      length 7.067664
      axis 0.0 0.0 0.0 xyz
   end
   begin
      id 2
      name LeftUpLeg_dum
      direction 1.000000 0.000000 0.000000
      length 4.013002
      axis 0.0 0.0 0.0 xyz
   end
   begin
      id 3
      name RightUpLeg_dum
      direction -1.000000 0.000000 0.000000
      length 4.013002
      axis 0.0 0.0 0.0 xyz
   end
   begin
      id 4
      name Spine
      direction 0.000000 1.000000 0.000000
      length 0.000000
      axis 0.0 0.0 0.0 xyz
      dof rx ry rz
   end
   begin
      id 5
      name Spine_dum1
      direction 0.000000 1.000000 0.000000
      length 15.039886
      axis 0.0 0.0 0.0 xyz
   end
   begin
      id 6
      name Spine_dum2
      direction 0.000000 1.000000 0.000000
      length 10.530368
      axis 0.0 0.0 0.0 xyz
   end
   begin
      id 7
      name Spine_dum3
      direction 0.000000 1.000000 0.000000
      length 10.530368
      axis 0.0 0.0 0.0 xyz
   end
   begin
      id 8
      name Head
      direction 0.000000 1.000000 0.000000
      length 4.527550
      axis 0.0 0.0 0.0 xyz
      dof rx ry rz
   end
   begin
      id 9
      name LeftShoulder
      direction 1.000000 0.000000 0.000000
      length 7.028855
      axis 0.0 0.0 -90.0 xyz
      dof rx ry rz
   end
   begin
      id 10
      name LeftArm
      direction 1.000000 0.000000 0.000000
      length 10.797705
      axis 0.0 0.0 -90.0 xyz
      dof rx ry rz
   end
   begin
      id 11
      name LeftForeArm
      direction 1.000000 0.000000 0.000000
      length 7.907442
      axis 0.0 0.0 -90.0 xyz
      dof ry rz rx
   end
   begin
      id 12
      name LeftHand
      direction 0.000000 0.000000 0.000000
      length 0.000000
      axis 0.0 0.0 -90.0 xyz
      dof rx ry rz
   end
   begin
      id 13
      name LeftHand_dum1
      direction 0.000000 0.000000 0.000000
      length 0.000000
      axis 0.0 0.0 -90.0 xyz
   end
   begin
      id 14
      name LeftHand_dum2
      direction 1.000000 0.000000 0.000000
      length 3.937000
      axis 0.0 0.0 -90.0 xyz
   end
   begin
      id 15
      name LeftHandThumb1
      direction 0.000000 0.000000 1.000000
      length 3.937000
      axis 0.0 0.0 -90.0 xyz
      dof rx rz ry
   end
   begin
      id 16
      name RightShoulder
      direction -1.000000 0.000000 0.000000
      length 7.028855
      axis 0.0 0.0 90.0 xyz
      dof rx ry rz
   end
   begin
      id 17
      name RightArm
      direction -1.000000 0.000000 0.000000
      length 10.797705
      axis 0.0 0.0 90.0 xyz
      dof rx ry rz
   end
   begin
      id 18
      name RightForeArm
      direction -1.000000 0.000000 0.000000
      length 7.907442
      axis 0.0 0.0 90.0 xyz
      dof ry rz rx
   end
   begin
      id 19
      name RightHand
      direction 0.000000 0.000000 0.000000
      length 0.000000
      axis 0.0 0.0 90.0 xyz
      dof rx ry rz
   end
   begin
      id 20
      name RightHand_dum1
      direction 0.000000 0.000000 0.000000
      length 0.000000
      axis 0.0 0.0 90.0 xyz
   end
   begin
      id 21
      name RightHand_dum2
      direction -1.000000 0.000000 0.000000
      length 3.937000
      axis 0.0 0.0 90.0 xyz
   end
   begin
      id 22
      name RightHandThumb1
      direction 0.000000 0.000000 1.000000
      length 3.937000
      axis 0.0 0.0 90.0 xyz
      dof rx rz ry
   end
   begin
      id 23
      name LeftUpLeg
      direction 0.000000 -1.000000 0.000000
      length 16.899758
      axis 0.0 0.0 0.0 xyz
      dof rx ry rz
   end
   begin
      id 24
      name LeftLeg
      direction 0.000000 -1.000000 0.000000
      length 17.389183
      axis 0.0 0.0 0.0 xyz
      dof rx ry rz
   end
   begin
      id 25
      name LeftFoot
      direction 0.000000 -0.258819 0.965926
      length 4.924528
      axis 15.0 0.0 0.0 xyz
      dof rx ry rz
   end
   begin
      id 26
      name LeftToeBase
      direction 0.000000 0.000000 1.000000
      length 2.952750
      axis 0.0 0.0 0.0 xyz
      dof rx ry rz
   end
   begin
      id 27
      name RightUpLeg
      direction 0.000000 -1.000000 0.000000
      length 16.899758
      axis 0.0 0.0 0.0 xyz
      dof rx ry rz
   end
   begin
      id 28
      name RightLeg
      direction 0.000000 -1.000000 0.000000
      length 17.389183
      axis 0.0 0.0 0.0 xyz
      dof rx ry rz
   end
   begin
      id 29
      name RightFoot
      direction 0.000000 -0.258819 0.965926
      length 4.924528
      axis 15.0 0.0 0.0 xyz
      dof rx ry rz
   end
   begin
      id 30
      name RightToeBase
      direction 0.000000 0.000000 1.000000
      length 2.952750
      axis 0.0 0.0 0.0 xyz
      dof rx ry rz
   end
:hierarchy
   begin
      root Spine_dum LeftUpLeg_dum RightUpLeg_dum
      Spine_dum Spine
      LeftUpLeg_dum LeftUpLeg
      RightUpLeg_dum RightUpLeg
      Spine Spine_dum1 Spine_dum2 Spine_dum3
      Spine_dum1 Head
      Spine_dum2 LeftShoulder
      Spine_dum3 RightShoulder
      LeftShoulder LeftArm
      LeftArm LeftForeArm
      LeftForeArm LeftHand
      LeftHand LeftHand_dum1 LeftHand_dum2
      LeftHand_dum1 LeftHandThumb1
      RightShoulder RightArm
      RightArm RightForeArm
      RightForeArm RightHand
      RightHand RightHand_dum1 RightHand_dum2
      RightHand_dum1 RightHandThumb1
      LeftUpLeg LeftLeg
      LeftLeg LeftFoot
      LeftFoot LeftToeBase
      RightUpLeg RightLeg
      RightLeg RightFoot
      RightFoot RightToeBase
   end

# File created by Blade
# Date/Time:  Wed Jan 21 17:10:37 2015
# Frame Rate: 120.000 fps
#------------------------------------------------------
:FULLY-SPECIFIED
:DEGREES
190
root 19.936205 34.177747 -17.239344 -158.275259 -1.345463 -180.681210
Spine 52.916439 7.646162 -5.784363
Head -3.551901 -0.635897 3.889758
LeftShoulder 6.868935 -33.015906 0.468345
LeftArm 11.447721 26.176149 -67.804843
LeftForeArm -6.177920 -0.000000 10.094622
LeftHand 1.773924 -0.000000 7.643855
LeftHandThumb1 -26.253704 0.000000 33.147579
RightShoulder 5.930308 -2.848520 3.038158
RightArm 37.381533 -16.171667 56.310095
RightForeArm -22.430452 0.000000 22.003573
RightHand -1.870856 0.000000 -7.222133
RightHandThumb1 -24.326973 -0.000000 -32.862282
LeftUpLeg -46.422105 2.484195 -7.646648
LeftLeg 28.272068 -0.000000 -0.000000
LeftFoot -20.120941 26.030790 -10.561746
LeftToeBase 22.698528 -0.000000 -0.000000
RightUpLeg -50.755866 5.620738 4.694029
RightLeg 34.354303 -0.000000 -0.000000
RightFoot -21.050662 -27.186628 15.281602
RightToeBase 8.772346 -0.000000 -0.000000
191
root 19.952242 34.066412 -17.161959 -157.513509 -1.580358 -180.630620
Spine 53.371490 7.548886 -5.564099
Head -4.205324 -0.772604 3.864855
LeftShoulder 7.187050 -33.305021 0.372033
LeftArm 11.986010 25.948916 -67.376863
LeftForeArm -6.136686 -0.000000 10.409484
LeftHand 1.642507 -0.000000 7.333575
LeftHandThumb1 -26.253704 0.000000 33.147579
RightShoulder 6.178942 -2.319358 2.925986
RightArm 37.271067 -15.499446 56.516054
RightForeArm -22.513973 -0.000000 22.072892
RightHand -1.797443 -0.000000 -7.250935
RightHandThumb1 -24.326973 -0.000000 -32.862282
LeftUpLeg -47.930675 2.083585 -7.461389
LeftLeg 29.448930 -0.000000 -0.000000
LeftFoot -20.434090 26.125607 -10.258660
LeftToeBase 22.773653 -0.000000 -0.000000
RightUpLeg -51.847905 5.498765 4.898913
RightLeg 34.490882 -0.000000 -0.000000
RightFoot -19.724693 -27.210829 14.703487
RightToeBase 9.035155 -0.000000 -0.000000
192
root 19.958136 33.930513 -17.085617 -156.737072 -1.792419 -180.679253
Spine 53.729119 7.408522 -5.484453
Head -4.809755 -0.856375 3.846751
LeftShoulder 7.459175 -33.622538 0.329208
LeftArm 12.348411 25.589749 -67.087855
LeftForeArm -6.017506 -0.000000 10.761891
LeftHand 1.557763 -0.000000 7.542326
LeftHandThumb1 -26.253704 0.000000 33.147579
RightShoulder 6.364617 -2.144452 2.860418
RightArm 37.625832 -15.082226 56.210126
RightForeArm -22.113204 0.000000 22.097263
RightHand -2.017231 -0.000000 -7.400102
RightHandThumb1 -24.326973 -0.000000 -32.862282
LeftUpLeg -49.504235 1.630585 -7.380478
LeftLeg 30.708550 -0.000000 -0.000000
LeftFoot -20.895427 26.252840 -10.102174
LeftToeBase 22.948868 -0.000000 -0.000000
RightUpLeg -53.097807 5.411658 4.923375
RightLeg 34.937827 -0.000000 -0.000000
RightFoot -19.078928 -27.270164 14.179125
RightToeBase 10.687771 -0.000000 -0.000000
193
root 19.945567 33.778942 -17.002435 -155.869937 -2.073110 -180.806829
Spine 53.944703 7.090705 -5.429766
Head -5.294320 -0.892754 3.728597
LeftShoulder 7.743332 -33.898659 0.205284
LeftArm 12.638451 24.973570 -66.897670
LeftForeArm -5.686223 -0.000000 11.045533
LeftHand 1.575642 0.000000 7.280869
LeftHandThumb1 -26.253704 0.000000 33.147579
RightShoulder 6.588336 -1.878843 2.785377
RightArm 37.817708 -14.837421 55.800266
RightForeArm -21.939999 -0.000000 22.139121
RightHand -2.107919 0.000000 -7.865282
RightHandThumb1 -24.326973 -0.000000 -32.862282
LeftUpLeg -51.248144 1.098240 -7.398450
LeftLeg 32.104467 -0.000000 -0.000000
LeftFoot -21.371884 26.330573 -10.077303
LeftToeBase 22.944592 -0.000000 -0.000000
RightUpLeg -54.494860 5.116850 4.882898
RightLeg 35.483156 -0.000000 -0.000000
RightFoot -19.755015 -27.284624 13.733077
RightToeBase 13.983737 -0.000000 -0.000000
194
root 19.970923 33.621554 -16.955563 -155.296480 -2.221538 -180.779877
Spine 54.468444 7.095034 -5.310490
Head -5.832784 -0.942867 3.802049
LeftShoulder 8.045282 -34.354524 0.114063
LeftArm 12.880420 25.243751 -66.462906
LeftForeArm -6.234053 -0.000000 11.415955
LeftHand 1.461423 0.000000 7.537372
LeftHandThumb1 -26.253704 0.000000 33.147579
RightShoulder 6.831456 -1.598803 2.851697
RightArm 37.983194 -14.243461 55.624176
RightForeArm -22.102259 -0.000000 22.155199
RightHand -2.043524 -0.000000 -7.821760
RightHandThumb1 -24.326973 -0.000000 -32.862282
LeftUpLeg -52.671363 1.019929 -7.387867
LeftLeg 33.524006 -0.000000 -0.000000
LeftFoot -21.996381 26.257798 -9.725341
LeftToeBase 23.179751 -0.000000 -0.000000
RightUpLeg -55.549631 5.262374 4.844444
RightLeg 36.166034 -0.000000 -0.000000
RightFoot -20.760702 -27.566736 13.971950
RightToeBase 16.035775 -0.000000 -0.000000
195
root 20.006083 33.456896 -16.898754 -154.708585 -2.362932 -180.631132
Spine 54.953004 7.172364 -5.029652
Head -6.341921 -1.036758 3.877600
LeftShoulder 8.449649 -34.597737 -0.008133
LeftArm 13.301913 25.110055 -66.031804
LeftForeArm -6.530841 -0.000000 11.697545
LeftHand 1.400032 -0.000000 7.527384
LeftHandThumb1 -26.253704 0.000000 33.147579
RightShoulder 7.041583 -1.465642 2.813023
RightArm 38.353925 -13.754832 55.265079
RightForeArm -22.078657 -0.000000 22.114517
RightHand -2.091756 -0.000000 -7.940665
RightHandThumb1 -24.326973 -0.000000 -32.862282
LeftUpLeg -54.256700 1.071132 -7.309446
LeftLeg 35.157959 -0.000000 -0.000000
LeftFoot -22.691720 26.048899 -9.566074
LeftToeBase 23.348844 -0.000000 -0.000000
RightUpLeg -56.623471 5.410083 4.946657
RightLeg 36.857075 -0.000000 -0.000000
RightFoot -21.541426 -27.813005 14.311810
RightToeBase 18.039956 -0.000000 -0.000000
